<svg xmlns="http://www.w3.org/2000/svg" id="long_logo_banding" data-name="long logo banding" viewBox="0 0 260.62 40.66"><defs><style>.cls-1{fill:#fff}</style></defs><path d="M25.92 12.62A8 8 0 0 0 23 10.4a9.65 9.65 0 0 0-4-.78A10 10 0 0 0 11.41 13a11.49 11.49 0 0 0-2.23 3.75 13.62 13.62 0 0 0-.8 4.71 13.53 13.53 0 0 0 .8 4.73 12 12 0 0 0 2.2 3.73 9.88 9.88 0 0 0 3.29 2.45 9.41 9.41 0 0 0 4.06.88 9.07 9.07 0 0 0 4.39-1 8.78 8.78 0 0 0 3.16-2.9l6.72 5a14 14 0 0 1-5.89 4.81 18.34 18.34 0 0 1-7.35 1.55 22.68 22.68 0 0 1-7.91-1.34 18 18 0 0 1-6.26-3.86 17.55 17.55 0 0 1-4.12-6.08 20.71 20.71 0 0 1-1.47-8 20.76 20.76 0 0 1 1.47-8 17.64 17.64 0 0 1 4.12-6.06 18 18 0 0 1 6.26-3.85 22.46 22.46 0 0 1 7.91-1.35 19.28 19.28 0 0 1 3.24.29 18 18 0 0 1 3.32.9A15.47 15.47 0 0 1 29.44 5a12.55 12.55 0 0 1 2.68 2.53zm8.91-12h7.76v39.11h-7.76zm10.6 6.05a4.33 4.33 0 0 1 1.32-3.18 4.49 4.49 0 0 1 6.36 0 4.33 4.33 0 0 1 1.32 3.18 4.3 4.3 0 0 1-1.32 3.18 4.49 4.49 0 0 1-6.36 0 4.3 4.3 0 0 1-1.32-3.18zm.62 7.92h7.76v25.14h-7.76zm41.31-7.27a4.2 4.2 0 0 1 2.79-.8 5.63 5.63 0 0 1 1.29.13 7.65 7.65 0 0 1 1.25.35l.36-6.53A15 15 0 0 0 90.82.1C90.07 0 89.29 0 88.5 0a13.62 13.62 0 0 0-5.1.8 6.9 6.9 0 0 0-3 2.2A7.92 7.92 0 0 0 79 6.23a20.37 20.37 0 0 0-.36 3.91v4.45h-9.13v-4c0-1.65.31-2.74.93-3.28a4.21 4.21 0 0 1 2.8-.8 5.63 5.63 0 0 1 1.29.13 7.56 7.56 0 0 1 1.24.36l.36-6.53A14.69 14.69 0 0 0 73.91.1c-.76-.1-1.54-.1-2.33-.1a13.7 13.7 0 0 0-5.1.8 6.9 6.9 0 0 0-3 2.2 7.92 7.92 0 0 0-1.4 3.23 20.37 20.37 0 0 0-.36 3.91v4.45h-5.09v6.21h5.12v18.93h7.76V20.8h9.16v18.93h7.76V20.8h5.74v-6.21h-5.74v-4c0-1.59.31-2.73.93-3.27zM108.44 22a5.48 5.48 0 0 0-4.5-2.12 4.24 4.24 0 0 0-1.92.46 1.65 1.65 0 0 0-.93 1.6 1.45 1.45 0 0 0 1 1.38 12.71 12.71 0 0 0 2.43.77l3.16.73a11.55 11.55 0 0 1 3.11 1.18 7.07 7.07 0 0 1 2.43 2.25 6.71 6.71 0 0 1 1 3.8 7 7 0 0 1-1.06 4 8.07 8.07 0 0 1-2.72 2.54 11.6 11.6 0 0 1-3.76 1.41 22 22 0 0 1-4.09.39 19.81 19.81 0 0 1-5.33-.75 10 10 0 0 1-4.55-2.66l4.71-5.23a7.78 7.78 0 0 0 2.4 2 6.57 6.57 0 0 0 3.08.69 7.38 7.38 0 0 0 2.43-.38 1.44 1.44 0 0 0 1.09-1.43 1.58 1.58 0 0 0-1-1.47 10.71 10.71 0 0 0-2.43-.83l-3.15-.72a12.84 12.84 0 0 1-3.16-1.17 6.56 6.56 0 0 1-2.43-2.2 6.66 6.66 0 0 1-1-3.8 7.62 7.62 0 0 1 .91-3.83A7.81 7.81 0 0 1 96.62 16a10.29 10.29 0 0 1 3.38-1.54 15.32 15.32 0 0 1 3.87-.49 18.29 18.29 0 0 1 5 .72 9.44 9.44 0 0 1 4.3 2.59z" class="cls-1"/><path fill="#fff200" d="M118.73 3.1h11l15.57 25.46h.11V3.1h8.07v36.63h-10.59l-16-26.07h-.1v26.07h-8.07zm36.48 24.06a13.07 13.07 0 0 1 1.09-5.43 12.49 12.49 0 0 1 3-4.17 13.29 13.29 0 0 1 4.45-2.66 16.49 16.49 0 0 1 10.92 0 13.19 13.19 0 0 1 4.45 2.66 12.49 12.49 0 0 1 3 4.17 13.07 13.07 0 0 1 1.09 5.43 13.07 13.07 0 0 1-1.09 5.43 12.49 12.49 0 0 1-3 4.17 13.19 13.19 0 0 1-4.45 2.66 16.49 16.49 0 0 1-10.92 0 13.29 13.29 0 0 1-4.45-2.66 12.49 12.49 0 0 1-3-4.17 13.07 13.07 0 0 1-1.09-5.43zm7.76 0a6.51 6.51 0 0 0 1.63 4.6 6.84 6.84 0 0 0 9.16 0 6.47 6.47 0 0 0 1.63-4.6 6.47 6.47 0 0 0-1.63-4.6 6.84 6.84 0 0 0-9.16 0 6.51 6.51 0 0 0-1.6 4.6zm39.25-6.36h-6.83v8.38a15.53 15.53 0 0 0 .11 1.89 3.69 3.69 0 0 0 .46 1.47 2.4 2.4 0 0 0 1.11 1 5.05 5.05 0 0 0 2 .33 12.6 12.6 0 0 0 1.62-.13 2.69 2.69 0 0 0 1.53-.59v6.46a11.58 11.58 0 0 1-2.69.63 25.57 25.57 0 0 1-2.74.15 15.19 15.19 0 0 1-3.62-.41 8.38 8.38 0 0 1-2.9-1.32 6.16 6.16 0 0 1-1.94-2.36 7.93 7.93 0 0 1-.7-3.51V20.8h-5v-6.21h5V7.14h7.76v7.45h6.83zm24.86 14.58a12.32 12.32 0 0 1-4.71 3.68 14.09 14.09 0 0 1-5.89 1.29 15.85 15.85 0 0 1-5.46-.93 13.19 13.19 0 0 1-4.45-2.66 12.66 12.66 0 0 1-3-4.17 13.23 13.23 0 0 1-1.08-5.43 13.23 13.23 0 0 1 1.08-5.43 12.66 12.66 0 0 1 3-4.17A13.19 13.19 0 0 1 211 14.9a15.85 15.85 0 0 1 5.46-.93 12.38 12.38 0 0 1 4.88.93 10.23 10.23 0 0 1 3.73 2.66 12.13 12.13 0 0 1 2.35 4.17 16.82 16.82 0 0 1 .83 5.43v2.43h-18a6.12 6.12 0 0 0 2 3.54 5.73 5.73 0 0 0 3.83 1.32 5.84 5.84 0 0 0 3.24-.85 8.72 8.72 0 0 0 2.3-2.2zm-6.57-11.07a4.53 4.53 0 0 0-1.29-3.31 4.63 4.63 0 0 0-3.47-1.4 5.8 5.8 0 0 0-2.28.42 5.94 5.94 0 0 0-1.68.98 4.71 4.71 0 0 0-1.08 1.5 4.81 4.81 0 0 0-.44 1.78zM244.63 22a5.48 5.48 0 0 0-4.5-2.12 4.2 4.2 0 0 0-1.91.46 1.65 1.65 0 0 0-.93 1.6 1.44 1.44 0 0 0 1 1.38 12.71 12.71 0 0 0 2.43.77l3.16.73A11.55 11.55 0 0 1 247 26a7 7 0 0 1 2.44 2.25 6.79 6.79 0 0 1 1 3.8 7 7 0 0 1-1.06 4 8 8 0 0 1-2.71 2.54 11.74 11.74 0 0 1-3.8 1.41 22 22 0 0 1-4.08.39 19.76 19.76 0 0 1-5.33-.75 10 10 0 0 1-4.56-2.66l4.71-5.23a7.92 7.92 0 0 0 2.41 2 6.54 6.54 0 0 0 3.08.69 7.46 7.46 0 0 0 2.43-.38 1.44 1.44 0 0 0 1.08-1.43 1.58 1.58 0 0 0-1-1.47 10.64 10.64 0 0 0-2.44-.83l-3.15-.72a13.15 13.15 0 0 1-3.16-1.17 6.56 6.56 0 0 1-2.43-2.2 6.66 6.66 0 0 1-.95-3.8 7.72 7.72 0 0 1 .9-3.83 7.91 7.91 0 0 1 2.43-2.61 10.29 10.29 0 0 1 3.39-1.53 15.4 15.4 0 0 1 3.88-.49 18.34 18.34 0 0 1 5 .72 9.36 9.36 0 0 1 4.29 2.59z"/><path d="M251.63 6.67a4.48 4.48 0 0 1 .37-1.75 4.62 4.62 0 0 1 2.4-2.39 4.24 4.24 0 0 1 1.74-.36 4.32 4.32 0 0 1 1.75.36 4.65 4.65 0 0 1 2.39 2.39 4.32 4.32 0 0 1 .36 1.75 4.24 4.24 0 0 1-.36 1.74 4.62 4.62 0 0 1-2.39 2.4 4.48 4.48 0 0 1-1.75.35 4.4 4.4 0 0 1-1.74-.35 4.59 4.59 0 0 1-2.4-2.4 4.4 4.4 0 0 1-.37-1.74zm.65 0a3.79 3.79 0 0 0 .3 1.5 4.09 4.09 0 0 0 .82 1.22 4.09 4.09 0 0 0 1.22.82 3.9 3.9 0 0 0 3 0 4 4 0 0 0 1.22-.82 3.91 3.91 0 0 0 .82-1.22 3.84 3.84 0 0 0-2-5 3.9 3.9 0 0 0-3 0 3.91 3.91 0 0 0-1.26.83 4 4 0 0 0-.82 1.22 3.79 3.79 0 0 0-.3 1.45zm2.86 2.57h-.65V4.06h2a1.74 1.74 0 0 1 1.26.37 1.42 1.42 0 0 1 .37 1.07 1.59 1.59 0 0 1-.1.61 1.28 1.28 0 0 1-.28.43 1.34 1.34 0 0 1-.42.28 2.07 2.07 0 0 1-.5.15l1.55 2.27h-.74L256.07 7h-.93zm0-2.85h1.39a1.47 1.47 0 0 0 .48-.11.88.88 0 0 0 .34-.26.82.82 0 0 0 .13-.5.77.77 0 0 0-.1-.42.75.75 0 0 0-.27-.26 1 1 0 0 0-.37-.14 2 2 0 0 0-.42 0h-1.16z" class="cls-1"/></svg>